<svg xmlns="http://www.w3.org/2000/svg" viewBox="0 0 239.4 128.83"><g data-name="Ebene 2"><g data-name="Ebene 1"><path fill="#fff" d="M3.73 51.59h231.94v14.17H3.73z"/><path d="M0 0v118.83h208.34a30.91 30.91 0 0 0 31.06-30.69V0z" fill="#6db358"/><path fill="#6db358" d="M3.73 3.71h231.94v55.62H3.73z"/><path d="M3.73 115.11h204.61a27.3 27.3 0 0 0 27.33-27V59.33H3.73z" fill="#fff"/><path d="M24.88 103.15h-.39a8.42 8.42 0 0 1-8.77-8.68c0-3.33 5.06-3.33 5.06 0a3.45 3.45 0 0 0 3.71 3.69h.39c2.18 0 3.84-1.13 3.84-3.3C28.72 89.44 16 88.92 16 81v-.9c0-4.64 4.66-7.42 8.46-7.42h.39c4.49 0 8.5 2.78 8.5 6.94 0 3.21-5 3.3-5 .13 0-1.13-1.4-2.08-3.49-2.08h-.39c-1.92 0-3.4 1-3.4 2.69V81c0 3.43 12.68 5 12.68 13.88 0 5-3.87 8.29-8.89 8.29m21.95-.02h-.39a8.55 8.55 0 0 1-8.72-8.5V81.12a8.51 8.51 0 0 1 8.72-8.46h.39a8.48 8.48 0 0 1 8.63 7.24 1.5 1.5 0 0 1 0 .44 2.45 2.45 0 0 1-2.57 2.42 2.38 2.38 0 0 1-2.44-2.16 3.52 3.52 0 0 0-3.66-2.95h-.39a3.54 3.54 0 0 0-3.71 3.47v13.53a3.57 3.57 0 0 0 3.71 3.51h.39a3.52 3.52 0 0 0 3.66-3 2.52 2.52 0 0 1 5 .26V96a8.61 8.61 0 0 1-8.67 7.2m25.11-22.04a3.51 3.51 0 0 0-3.66-3.51h-.39a3.53 3.53 0 0 0-3.66 3.51V94.6a3.58 3.58 0 0 0 3.66 3.56h.39a3.54 3.54 0 0 0 3.66-3.51zm-3.66 22h-.39a8.57 8.57 0 0 1-8.72-8.5v-13.5a8.55 8.55 0 0 1 8.72-8.5h.39a8.52 8.52 0 0 1 8.72 8.5V94.6a8.56 8.56 0 0 1-8.72 8.55m23.02 0h-.39a8.72 8.72 0 0 1-8.72-8.68V75.18a2.53 2.53 0 0 1 5 0v19.29a3.72 3.72 0 0 0 3.67 3.69h.39a3.7 3.7 0 0 0 3.71-3.69V75.18a2.53 2.53 0 0 1 5 0v19.29a8.73 8.73 0 0 1-8.76 8.68m26.74-25.24h-3.49v22.72a2.53 2.53 0 0 1-5.06 0V77.91h-3.48a2.5 2.5 0 1 1 0-5h12a2.5 2.5 0 1 1 0 5m23.57 24.98h-11.34a2.79 2.79 0 0 1-2.57-3 2.76 2.76 0 0 1 .4-1.56l9.89-15.87a3.19 3.19 0 0 0 .52-2v-.35a2.56 2.56 0 0 0-2.61-2.47h-.13a2.49 2.49 0 0 0-2.57 2.48v.48a2.53 2.53 0 0 1-5.06 0V80a7.35 7.35 0 0 1 7.59-7.29h.13a7.43 7.43 0 0 1 7.71 7.29l-.05.47a8.52 8.52 0 0 1-1.52 4.52l-8 13h7.59a2.5 2.5 0 1 1 0 5m19.94-6.05h-1v3.69a2.53 2.53 0 0 1-5.05 0v-3.69h-6.85a2.51 2.51 0 0 1-2.83-2.64 3.65 3.65 0 0 1 .26-1.39l8.15-18.73a2.37 2.37 0 0 1 2.22-1.52 2.49 2.49 0 0 1 2.4 3.51L151.47 92h3.85v-2.56a2.53 2.53 0 0 1 5.05 0V92h1a2.38 2.38 0 0 1 2.53 2.47 2.41 2.41 0 0 1-2.53 2.51" fill="#6db358"/><path d="M27.46 24.6l-2.75 9.15h5.49zm8.24 21.16A2.31 2.31 0 0 1 33.39 44l-1.62-5.25h-8.63L21.53 44a2.41 2.41 0 0 1-2.36 1.77 2.52 2.52 0 0 1-2.61-2.43 1.9 1.9 0 0 1 .13-.82l8-25.11c.61-1.95 1.7-2.12 2.79-2.12s2.13.17 2.79 2.12l7.93 25.11a2.79 2.79 0 0 1 .13.82 2.52 2.52 0 0 1-2.61 2.43M51 45.76h-.4a8.72 8.72 0 0 1-8.72-8.67v-19.3a2.53 2.53 0 0 1 5.06 0v19.3a3.72 3.72 0 0 0 3.66 3.69h.4a3.69 3.69 0 0 0 3.7-3.69v-19.3a2.53 2.53 0 0 1 5.06 0v19.3A8.73 8.73 0 0 1 51 45.76m27-25.23h-3.45v22.71a2.53 2.53 0 0 1-5.06 0V20.53H66a2.5 2.5 0 1 1 0-5h12a2.5 2.5 0 1 1 0 5m18.37 3.25a3.52 3.52 0 0 0-3.67-3.52h-.39a3.55 3.55 0 0 0-3.67 3.52v13.44a3.58 3.58 0 0 0 3.67 3.56h.39a3.55 3.55 0 0 0 3.67-3.52zm-3.67 22h-.39a8.57 8.57 0 0 1-8.72-8.5v-13.5a8.54 8.54 0 0 1 8.72-8.5h.39a8.52 8.52 0 0 1 8.72 8.5v13.44a8.56 8.56 0 0 1-8.72 8.54" fill="#fff"/><g fill-rule="evenodd"><path d="M218.22 112.81h1.18v8.6h-1.17a1.28 1.28 0 0 1 0-.19V113a1.48 1.48 0 0 1 0-.21zm-11.29-11.26v1.17h-2.38v-1.17zM217 125v3.73a.62.62 0 0 1 0 .13h-12.45V124.98h1.21v2.67h9.79V125H217zm-14.81-11h1.17v-11.3h1.17a1.64 1.64 0 0 1 0 .22v15.8h-1.19v-3.55h-1.17V114z"/><path d="M199.5 116.37h-1.17v-3.54h3.86V114h-2.69v2.35zm18.72 5.04v3.33a1.77 1.77 0 0 0 0 .23H217v-3.56h1.21zm-16.03-1.17h-1.47a.37.37 0 0 1 0-.09V117.58h1.47v2.65zm1.17 2.39h-1.17v-2.39h1.17v2.39zm1.18 2.37h-1.18v-2.35h1.19V125zm-3.83-7.42h-1.21v-1.21h1.21v1.22zm6.21-14.86h1.19v5h2.68V109h-2.68v5h-1.18v-11.28zm3.87 6.28h3.56v1.18H212V114h-1.2v-5zm3.56 1.16H217v1.17h-1.48v3.85h-1.17v-5zm2.65 1.17h1.21v1.48H217v-1.47z"/><path d="M217 111.33v1.47h1.22a1.48 1.48 0 0 0 0 .21v8.22a1.28 1.28 0 0 0 0 .19H217V125h-1.47v2.67h-9.79V125h-1.21v-2.35h-1.19v-2.39h-1.18v-2.65h-1.47v-1.22h-1.22V114h2.69v1.17h1.17v3.55h1.19v-15.8a1.64 1.64 0 0 0 0-.22h2.4V114h1.18v-5h2.69v5H212v-3.85h2.39v5h1.17v-3.85z" fill="#fff"/></g></g></g></svg>